# xmcd CD database file
#
# Track frame offsets:
#	150
#	13529
#	25260
#	35081
#	48491
#	60634
#	73047
#	85726
#	99666
#	109998
#
# Disc length: 1633 seconds
#
# Revision: 0
# Processed by: cddbd v1.5.2PL0 Copyright (c) Steve Scherf et al.
# Submitted via: CDex 1.70beta2
#
DISCID=83065f0a
DTITLE=Lynn Anderson - Good Old Country
DYEAR=2000
DGENRE=Country
TTITLE0=Rose Garden
TTITLE1=You're My Man
TTITLE2=What A Man My Man Is
TTITLE3=Keep Me In Mind
TTITLE4=How Can I Unlove You
TTITLE5=I've Never Loved Anyone More
TTITLE6=Top Of The World
TTITLE7=Cry
TTITLE8=Fool Me
TTITLE9=Listen To A Country Song
EXTD=YEAR: 2000
EXTT0=
EXTT1=
EXTT2=
EXTT3=
EXTT4=
EXTT5=
EXTT6=
EXTT7=
EXTT8=
EXTT9=
PLAYORDER=
